<?xml version="1.0" encoding="UTF-8"?>
<svg id="_Слой_1" data-name="Слой 1" xmlns="http://www.w3.org/2000/svg" viewBox="0 0 497.52 140.96">
  <defs>
    <style>
      .cls-1 {
        fill: #074793;
      }

      .cls-2 {
        fill: #0c2549;
      }

      .cls-3 {
        fill: #c4e572;
      }

      .cls-4 {
        fill: #d1dbe9;
      }

      .cls-5 {
        fill: none;
      }

      .cls-6 {
        fill: #3cbfeb;
      }

      .cls-7 {
        font-family: Impact, Impact;
        font-size: 80px;
        letter-spacing: .1em;
      }

      .cls-8 {
        fill: #a2b6d3;
      }
    </style>
  </defs>
  <g>
    <path class="cls-2" d="m103.27,55.72s-.04-.04-.06-.06-.04-.05-.06-.06t.02.02s-.01,0-.01-.02c0,0-5.95-4.93-13.5-6.6-1.71-.38-3.49-.61-5.26-.73-4.51-.31-8.94.07-12.1.5-2.75.37-4.53.78-4.53.78-6.99,1.49-13.18,3.35-18.63,5.54-1.16-.7-2.77-1.76-4.68-3.26-.99-.78-2.07-1.67-3.21-2.69C32.78,41.54,20.57,26.78,11.5,0c0,0-30.59,33.01,8.03,71.12.4.4.81.8,1.23,1.2.54.51,1.08,1.03,1.65,1.54-21.46,27.87,5.43,63.84,40.54,44.16-.58.22-1.15.44-1.73.63-27.03,12.53-49.93-14.73-26.12-36.41.26.77.59,1.58,1.01,2.44,26.17,53.92,62.97,30.52,62.97,30.52-29.74-18.97-37.35-45.52-37.35-45.52-.04-.58-.03-1.08.06-1.73,10.34-3.4,23.17-6.06,38.94-7.57,4.49-.41,3.12-3.92,2.54-4.66Z"/>
    <path class="cls-8" d="m103.44,55.28s.02.03.04.04c.02.02.04.04.06.06.58.75,1.94,4.26-2.55,4.67-109.42,10.46-78.84,76.5-39.5,58.27.58-.19,1.15-.41,1.73-.63,5.14-2,10.25-5.37,15.21-10.3,4.01-3.99,7.29-8.37,9.84-12.91.01-.01.01-.02.02-.03,5.93-10.56,7.86-22.02,5.4-31.71,3.23-.39,6.05-.68,8.01-1.09,4.61-.95,4.17-4.55,1.74-6.37Zm-18.48,8.68c.52-.11,1.07-.18,1.59-.27,2.34,7.75.77,16.55-2.37,24.26l-.02.04-.02.04c-.82,1.99-1.73,3.86-2.74,5.56-1.21,2.02-2.44,3.88-3.7,5.6-11.66-12.66-16.33-24.78-17.62-28.66,6.9-2.63,15.13-4.88,24.88-6.57Zm-40.01,14.22c8.61,20.56,20.75,25.31,28.71,25.96-.06.07-.12.14-.18.21-33.47,28.06-61.37-4.03-28.53-26.17Z"/>
    <path class="cls-5" d="m56.3,47.6c-3.72.77-7.64,2.06-11.56,3.89,1.92,1.5,3.52,2.56,4.68,3.26,5.45-2.19,11.64-4.05,18.63-5.54,0,0,1.78-.41,4.53-.78-.02,0-.05,0-.07,0-5.49-1.73-11.69-1.76-16.21-.84Z"/>
    <path class="cls-8" d="m56.3,47.6c4.53-.92,10.72-.9,16.21.84.02,0,.05,0,.07,0,3.16-.43,7.59-.82,12.1-.5-11.19-8.51-28.15-7.89-43.15.87,1.14,1.02,2.22,1.92,3.21,2.69,3.92-1.83,7.84-3.12,11.56-3.89Z"/>
    <path class="cls-8" d="m14.01,86.28c1.83-4.94,4.23-9.32,7.02-13.18-.42-.37-.83-.74-1.23-1.11-2.86,4.66-4.81,9.51-5.79,14.29Z"/>
    <path class="cls-8" d="m19.15,90.62h0c-.43-.12-.9.13-1.04.61-.12.46.12.94.55,1.06.43.12.89-.16,1.02-.61.16-.45-.1-.93-.53-1.06m3.14-6.99h0c-.51-.14-1.05.17-1.2.7-.16.54.13,1.1.63,1.25.52.16,1.05-.18,1.2-.7.15-.55-.11-1.1-.63-1.25m4.31-6.49h0c-.63-.2-1.27.18-1.46.86-.19.65.16,1.32.76,1.5.61.18,1.27-.2,1.45-.87.22-.65-.14-1.32-.75-1.49m34.24-20.99h0c-.62-.18-1.29.21-1.49.9-.21.67.14,1.37.77,1.56.65.18,1.31-.22,1.5-.9.21-.69-.15-1.39-.78-1.56m7.71-2.08c-.54-.18-1.13.24-1.29.9-.17.69.14,1.37.68,1.56.54.18,1.13-.22,1.31-.89.16-.69-.14-1.38-.69-1.57"/>
    <path class="cls-8" d="m101.42,53.85c-5.91.28-9.06.63-12.4-.42-4.25-1.34-3.63-1.88-3.63-1.88.42-.53,4.13-1.4,9.76-1.18,0,0,2.01.89,3.51,1.76,1.52.84,2.76,1.72,2.76,1.72"/>
    <path class="cls-8" d="m52.1,59.49S27.66,42.9,19.18,23.58c0,0-12.61,26.81,18.14,48.18,0,0,15.83-6.91,14.78-12.27"/>
    <path class="cls-5" d="m103.48,55.32s.04.04.06.06c-.03-.02-.04-.04-.06-.06Z"/>
    <path class="cls-5" d="m84.96,63.96c-9.75,1.68-17.98,3.94-24.87,6.57,1.28,3.87,5.96,16,17.61,28.65,1.26-1.72,2.5-3.59,3.7-5.6,1.01-1.7,1.92-3.58,2.74-5.56l.02-.04.02-.04c3.15-7.71,4.71-16.51,2.37-24.26-.52.11-1.07.18-1.59.28Z"/>
    <path class="cls-5" d="m44.95,78.18c-32.84,22.14-4.94,54.23,28.53,26.16.06-.07.12-.14.18-.21-7.96-.64-20.1-5.39-28.71-25.95Z"/>
    <path class="cls-6" d="m88.31,94.42s-.03.03-.03.04c-.01.01-.01.02-.02.03.02-.03.04-.05.05-.07Z"/>
    <path class="cls-1" d="m103.48,55.32s-.02-.03-.04-.04t-.02-.02s.04.04.06.06Z"/>
  </g>
  <text class="cls-7" transform="translate(128.52 114.52)"><tspan class="cls-4" x="0" y="0">Бред </tspan><tspan class="cls-3" x="230.51" y="0">Тур</tspan></text>
</svg>